<svg width="24" height="24" viewBox="0 0 24 24" fill="none" xmlns="http://www.w3.org/2000/svg">
<path d="M0.696289 23.2666L2.29575 17.4549C1.30697 15.749 0.787879 13.8135 0.790884 11.8439C0.790884 5.65561 5.85034 0.624756 12.0644 0.624756C13.5453 0.624756 15.0118 0.91522 16.3799 1.47956C17.7481 2.04389 18.9911 2.87104 20.0381 3.91375C21.085 4.95647 21.9154 6.19431 22.4817 7.55656C23.048 8.91882 23.3391 10.3788 23.3385 11.8531C23.3358 18.0414 18.2779 23.0723 12.0644 23.0723H12.0601C10.1778 23.0723 8.32555 22.6027 6.67251 21.7066L0.696289 23.2666ZM6.94926 19.6757L7.29197 19.8775C8.73591 20.7286 10.3831 21.1776 12.0612 21.1776H12.0644C17.2293 21.1776 21.4325 16.9937 21.4347 11.852C21.4352 10.627 21.1934 9.41386 20.723 8.28188C20.2526 7.14991 19.5628 6.12126 18.693 5.25469C17.8232 4.38812 16.7905 3.70059 15.6538 3.23137C14.5171 2.76215 13.2987 2.52043 12.0682 2.52C6.89953 2.52 2.69629 6.70278 2.69413 11.8445C2.69176 13.6002 3.18836 15.3208 4.12656 16.8075L4.3498 17.16L3.40548 20.6013L6.94926 19.6757Z" fill="black"/>
<path fill-rule="evenodd" clip-rule="evenodd" d="M9.24631 7.15366C9.03496 6.68658 8.81388 6.67743 8.61226 6.66936C8.4501 6.66182 8.26037 6.66236 8.07172 6.66236C7.92903 6.66615 7.78868 6.69928 7.65947 6.75965C7.53026 6.82003 7.41499 6.90636 7.32091 7.01321C7.06253 7.29411 6.33496 7.97214 6.33496 9.35187C6.33496 10.7316 7.34415 12.065 7.48523 12.2523C7.62631 12.4396 9.43388 15.361 12.296 16.4851C14.6744 17.4193 15.1609 17.2337 15.676 17.1847C16.1912 17.1357 17.3425 16.5061 17.5777 15.8512C17.8128 15.1963 17.8123 14.6356 17.7398 14.5183C17.6674 14.401 17.4814 14.3311 17.1993 14.1911C16.9171 14.0512 15.5328 13.3721 15.2744 13.279C15.016 13.1859 14.8285 13.1386 14.6404 13.4195C14.4523 13.7004 13.9133 14.3311 13.7485 14.5183C13.5836 14.7056 13.4198 14.7293 13.1382 14.5888C12.8566 14.4484 11.949 14.1524 10.8733 13.1972C10.0355 12.4536 9.46793 11.5361 9.30577 11.2552C9.14361 10.9743 9.28847 10.8247 9.42956 10.6832C9.55604 10.5572 9.71118 10.3555 9.85226 10.1919C9.99334 10.0283 10.0398 9.91151 10.1339 9.72424C10.2279 9.53698 10.1809 9.37339 10.1101 9.23294C10.0393 9.0925 9.49658 7.70792 9.24631 7.15366Z" fill="black"/>
</svg>
